<?xml version="1.0" encoding="UTF-8"?>
<svg id="b" data-name="Layer 2" xmlns="http://www.w3.org/2000/svg" width="103.559" height="91.274" viewBox="0 0 103.559 91.274">
  <defs>
    <style>
      .d, .e {
        stroke-width: 0px;
      }

      .e {
        fill: #fff;
      }
    </style>
  </defs>
  <g id="c" data-name="Layer 1">
    <g>
      <path class="d" d="m74.703,0H28.856c-2.12,0-4.078,1.131-5.138,2.966L.795,42.671c-1.06,1.836-1.06,4.097,0,5.933l22.923,39.704c1.06,1.836,3.018,2.966,5.138,2.966h45.846c2.12,0,4.078-1.131,5.138-2.966l22.923-39.704c1.06-1.836,1.06-4.097,0-5.933L79.84,2.966C78.781,1.131,76.822,0,74.703,0Z"/>
      <polygon class="e" points="64.753 43.216 38.806 43.216 38.077 44.492 38.057 44.527 38.057 46.747 38.806 48.058 64.753 48.058 65.481 46.781 65.502 46.747 65.502 44.527 64.753 43.216"/>
    </g>
  </g>
</svg>