<?xml version="1.0" encoding="UTF-8"?>
<svg id="b" data-name="Layer 2" xmlns="http://www.w3.org/2000/svg" width="103.558" height="91.274" viewBox="0 0 103.558 91.274">
  <defs>
    <style>
      .d, .e {
        stroke-width: 0px;
      }

      .e {
        fill: #fff;
      }
    </style>
  </defs>
  <g id="c" data-name="Layer 1">
    <g>
      <path class="d" d="m74.702,0H28.856c-2.12,0-4.078,1.131-5.138,2.966L.795,42.671c-1.06,1.836-1.06,4.097,0,5.933l22.923,39.704c1.06,1.836,3.018,2.966,5.138,2.966h45.846c2.12,0,4.078-1.131,5.138-2.966l22.923-39.704c1.06-1.836,1.06-4.097,0-5.933L79.84,2.966C78.781,1.131,76.822,0,74.702,0Z"/>
      <circle class="e" cx="51.779" cy="45.637" r="25.671"/>
      <path class="d" d="m59.614,40.262h2.321s1.421-.813,1.421-.813v-.759c0-6.517-4.672-11.068-11.359-11.068-4.595,0-8.459,2.437-10.334,6.515-1.35,2.8-1.462,7.038-1.462,11.5,0,5.042.248,8.925,1.454,11.482,1.857,4.151,5.627,6.531,10.341,6.531,6.688,0,11.359-4.552,11.359-11.07v-.757s-1.421-.813-1.421-.813h-2.321s-1.423.813-1.423.813v.757c0,3.675-2.431,6.05-6.195,6.05-2.575,0-4.746-1.467-5.809-3.921-.804-1.918-.869-5.386-.869-9.073,0-3.571.104-7.143.869-9.076,1.022-2.456,3.194-3.922,5.809-3.922,3.764,0,6.195,2.375,6.195,6.05v.759s1.423.813,1.423.813Z"/>
    </g>
  </g>
</svg>