<?xml version="1.0" encoding="UTF-8"?>
<svg id="b" data-name="Layer 2" xmlns="http://www.w3.org/2000/svg" width="103.558" height="91.274" viewBox="0 0 103.558 91.274">
  <defs>
    <style>
      .d, .e {
        stroke-width: 0px;
      }

      .e {
        fill: #fff;
      }
    </style>
  </defs>
  <g id="c" data-name="Layer 1">
    <g>
      <path class="d" d="m74.703,0H28.856c-2.12,0-4.078,1.131-5.138,2.966L.795,42.671c-1.06,1.836-1.06,4.097,0,5.933l22.923,39.704c1.06,1.836,3.018,2.966,5.138,2.966h45.846c2.12,0,4.078-1.131,5.138-2.966l22.923-39.704c1.06-1.836,1.06-4.097,0-5.933L79.84,2.966C78.781,1.131,76.822,0,74.703,0Z"/>
      <path class="e" d="m61.424,38.673h2.567s1.421-.813,1.421-.813v-.662c0-7.664-5.497-13.015-13.368-13.015-5.412,0-9.961,2.869-12.167,7.671-1.598,3.316-1.729,8.412-1.729,13.785,0,6.072.294,10.738,1.727,13.775,2.182,4.88,6.618,7.678,12.17,7.678,7.871,0,13.368-5.352,13.368-13.016v-.661s-1.421-.814-1.421-.814h-2.567s-1.421.814-1.421.814v.661c0,4.729-3.125,7.785-7.959,7.785-3.304,0-6.092-1.882-7.457-5.031-1.006-2.406-1.09-6.666-1.09-11.19,0-4.382.133-8.771,1.091-11.193,1.313-3.149,4.101-5.03,7.456-5.03,4.835,0,7.959,3.055,7.959,7.784v.662s1.421.813,1.421.813Z"/>
    </g>
  </g>
</svg>