<?xml version="1.0" encoding="UTF-8"?>
<svg id="b" data-name="Layer 2" xmlns="http://www.w3.org/2000/svg" width="103.558" height="91.274" viewBox="0 0 103.558 91.274">
  <defs>
    <style>
      .d, .e {
        stroke-width: 0px;
      }

      .e {
        fill: #fff;
      }
    </style>
  </defs>
  <g id="c" data-name="Layer 1">
    <g>
      <path class="d" d="m74.702,0H28.856c-2.12,0-4.078,1.131-5.138,2.966L.795,42.671c-1.06,1.836-1.06,4.097,0,5.933l22.923,39.704c1.06,1.836,3.018,2.966,5.138,2.966h45.846c2.12,0,4.078-1.131,5.138-2.966l22.923-39.704c1.06-1.836,1.06-4.097,0-5.933L79.84,2.966C78.781,1.131,76.822,0,74.702,0Z"/>
      <polygon class="e" points="62.489 61.273 45.991 61.273 45.431 60.294 45.431 48.501 45.991 47.522 61.727 47.522 62.539 46.101 62.539 43.799 61.727 42.378 45.991 42.378 45.431 41.399 45.431 30.98 45.991 30.001 62.312 30.001 63.125 28.58 63.125 26.249 62.312 24.829 41.069 24.829 40.257 26.249 40.257 65.025 41.069 66.446 62.489 66.446 63.302 65.025 63.302 62.694 62.489 61.273"/>
    </g>
  </g>
</svg>