<?xml version="1.0" encoding="UTF-8"?>
<svg id="b" data-name="Layer 2" xmlns="http://www.w3.org/2000/svg" width="103.558" height="91.274" viewBox="0 0 103.558 91.274">
  <defs>
    <style>
      .d, .e {
        stroke-width: 0px;
      }

      .e {
        fill: #fff;
      }
    </style>
  </defs>
  <g id="c" data-name="Layer 1">
    <g>
      <path class="d" d="m74.703,0H28.856c-2.12,0-4.078,1.131-5.138,2.966L.795,42.671c-1.06,1.836-1.06,4.097,0,5.933l22.923,39.704c1.06,1.836,3.018,2.966,5.138,2.966h45.846c2.12,0,4.078-1.131,5.138-2.966l22.923-39.704c1.06-1.836,1.06-4.097,0-5.933L79.84,2.966C78.781,1.131,76.822,0,74.703,0Z"/>
      <polygon class="e" points="62.986 61.273 54.367 61.273 54.367 30.001 62.401 30.001 63.214 28.58 63.214 26.249 62.401 24.829 41.158 24.829 40.344 26.249 40.344 28.58 41.158 30.001 49.192 30.001 49.192 61.273 40.572 61.273 39.759 62.694 39.759 65.025 40.572 66.446 62.986 66.446 63.8 65.025 63.8 62.694 62.986 61.273"/>
    </g>
  </g>
</svg>