<?xml version="1.0" encoding="UTF-8"?>
<svg id="b" data-name="Layer 2" xmlns="http://www.w3.org/2000/svg" width="103.558" height="91.274" viewBox="0 0 103.558 91.274">
  <defs>
    <style>
      .d, .e {
        stroke-width: 0px;
      }

      .e {
        fill: #fff;
      }
    </style>
  </defs>
  <g id="c" data-name="Layer 1">
    <g>
      <path class="d" d="m74.702,0H28.856c-2.12,0-4.078,1.131-5.138,2.966L.795,42.671c-1.06,1.836-1.06,4.097,0,5.933l22.923,39.704c1.06,1.836,3.018,2.966,5.138,2.966h45.846c2.12,0,4.078-1.131,5.138-2.966l22.923-39.704c1.06-1.836,1.06-4.097,0-5.933L79.84,2.966C78.781,1.131,76.822,0,74.702,0Z"/>
      <path class="e" d="m55.384,43.181l-4.396-1.348c-3.862-1.166-5.82-3.356-5.82-6.509,0-3.659,2.756-6.025,7.022-6.025,4.295,0,6.963,2.331,6.963,6.084v1.364s1.421.813,1.421.813h2.391s1.421-.813,1.421-.813c0,0,0-1.023,0-1.364,0-6.489-5.128-11.199-12.196-11.199-7.053,0-12.372,4.815-12.372,11.199,0,7.078,4.864,10.022,8.945,11.245l4.509,1.348c4.432,1.354,6.408,3.541,6.408,7.093,0,4.065-3.177,6.905-7.726,6.905-4.795,0-8.017-3.057-8.017-7.607v-1.012s-1.421-.813-1.421-.813h-2.508s-1.421.813-1.421.813v1.012c0,7.729,5.27,12.722,13.426,12.722,7.508,0,12.957-5.104,12.957-12.137,0-5.932-3.136-9.783-9.587-11.772Z"/>
    </g>
  </g>
</svg>