<?xml version="1.0" encoding="UTF-8"?>
<svg id="b" data-name="Layer 2" xmlns="http://www.w3.org/2000/svg" width="103.558" height="91.274" viewBox="0 0 103.558 91.274">
  <defs>
    <style>
      .d, .e {
        stroke-width: 0px;
      }

      .e {
        fill: #fff;
      }
    </style>
  </defs>
  <g id="c" data-name="Layer 1">
    <g>
      <path class="d" d="m74.702,0H28.856c-2.12,0-4.078,1.131-5.138,2.966L.795,42.671c-1.06,1.836-1.06,4.097,0,5.933l22.923,39.704c1.06,1.836,3.018,2.966,5.138,2.966h45.846c2.12,0,4.078-1.131,5.138-2.966l22.923-39.704c1.06-1.836,1.06-4.097,0-5.933L79.84,2.966C78.781,1.131,76.822,0,74.702,0Z"/>
      <polygon class="e" points="64.802 24.829 38.756 24.829 37.943 26.249 37.943 28.58 38.756 30.001 48.633 30.001 49.192 30.98 49.192 65.025 50.006 66.446 53.553 66.446 54.366 65.025 54.366 30.98 54.926 30.001 64.802 30.001 65.615 28.58 65.615 26.249 64.802 24.829"/>
    </g>
  </g>
</svg>